<svg version="1.1" id="svg2" xml:space="preserve" sodipodi:docname="Pentaro Logo Vector Artwork-1 (1).eps" xmlns:inkscape="http://www.inkscape.org/namespaces/inkscape" xmlns:sodipodi="http://sodipodi.sourceforge.net/DTD/sodipodi-0.dtd" xmlns="http://www.w3.org/2000/svg" xmlns:svg="http://www.w3.org/2000/svg" viewBox="484.71 97.2 76.74 73.99"><defs id="defs6"></defs><sodipodi:namedview id="namedview4" pagecolor="#ffffff" bordercolor="#666666" borderopacity="1.0" inkscape:pageshadow="2" inkscape:pageopacity="0.0" inkscape:pagecheckerboard="0"></sodipodi:namedview><g id="g8" inkscape:groupmode="layer" inkscape:label="ink_ext_XXXXXX" transform="matrix(1.3333333,0,0,-1.3333333,0,309.33333)"><g id="g10" transform="scale(0.1)"><path d="m 3915.85,1036.83 c 34.93,-5.41 67.63,18.52 73.03,53.46 0.89,5.72 0.98,11.37 0.37,16.86 -16.33,6.74 -29.52,20.65 -34.54,38.89 -1.1,4 -1.76,8.03 -2,12.04 -5.36,2.49 -11.15,4.28 -17.28,5.24 -34.93,5.4 -67.62,-18.52 -73.04,-53.45 -5.4,-34.93 18.53,-67.63 53.46,-73.04 z m 41.56,324.32 c 6.11,11.76 1.54,26.25 -10.21,32.37 -11.75,6.12 -26.24,1.54 -32.36,-10.21 -1.87,-3.6 -2.74,-7.45 -2.71,-11.24 -0.91,1.41 -1.98,2.75 -3.2,3.98 -9.37,9.38 -24.56,9.38 -33.94,0.01 -9.37,-9.36 -9.38,-24.56 -0.02,-33.92 2.69,-2.7 5.87,-4.63 9.25,-5.78 -1.39,-0.4 -2.77,-0.94 -4.11,-1.62 -11.83,-5.99 -16.56,-20.43 -10.57,-32.25 5.98,-11.83 20.42,-16.55 32.24,-10.57 3.4,1.73 6.22,4.15 8.36,7.01 -0.04,-1.46 0.04,-2.94 0.27,-4.43 2.02,-13.09 14.26,-22.08 27.36,-20.07 13.09,2.02 22.09,14.26 20.07,27.36 -0.61,4.01 -2.19,7.63 -4.45,10.67 1.56,-0.6 3.21,-1.04 4.93,-1.31 13.1,-2.03 25.36,6.94 27.38,20.05 2.03,13.09 -6.95,25.35 -20.04,27.37 -3.54,0.56 -7.03,0.3 -10.26,-0.63 0.74,1.01 1.41,2.08 2.01,3.21 z m -41.47,-1.9 c 2.19,-3.4 5.26,-6.29 9.1,-8.29 5.67,-2.95 11.98,-3.42 17.67,-1.79 -2.25,-3.04 -3.82,-6.64 -4.44,-10.63 -1.02,-6.62 0.76,-13.02 4.46,-17.99 -3.78,1.45 -7.97,1.97 -12.25,1.31 -6.46,-0.99 -11.92,-4.48 -15.55,-9.32 0.13,3.9 -0.69,7.89 -2.57,11.63 -2.96,5.82 -7.96,9.92 -13.69,11.87 3.74,1.09 7.28,3.12 10.24,6.07 4.73,4.73 7.07,10.94 7.03,17.14 z m 93.14,39.87 c 0.42,13.29 -10.01,24.41 -23.3,24.83 -13.29,0.42 -24.4,-10.01 -24.83,-23.3 -0.41,-13.29 10.02,-24.4 23.3,-24.83 13.29,-0.42 24.41,10.01 24.83,23.3 z m -117.91,-165.78 c 7.51,-10.97 22.5,-13.78 33.47,-6.25 10.97,7.5 13.77,22.49 6.25,33.46 -7.51,10.97 -22.5,13.77 -33.47,6.25 -10.97,-7.51 -13.77,-22.49 -6.25,-33.46 z m -75.19,100.67 c -8.08,-10.56 -6.09,-25.68 4.47,-33.76 10.55,-8.09 25.67,-6.09 33.76,4.46 8.09,10.56 6.09,25.67 -4.46,33.76 -10.56,8.08 -25.68,6.09 -33.77,-4.46 z m 72.31,102.75 c -12.54,4.4 -26.29,-2.19 -30.7,-14.74 -4.4,-12.55 2.2,-26.29 14.74,-30.7 12.55,-4.4 26.29,2.2 30.7,14.75 4.41,12.54 -2.19,26.29 -14.74,30.69 z m 194.62,-29.53 c -2.28,18.72 -19.31,32.06 -38.05,29.79 -18.72,-2.28 -32.06,-19.31 -29.78,-38.04 2.28,-18.74 19.3,-32.07 38.03,-29.79 18.73,2.27 32.07,19.31 29.8,38.04 z m -246.5,-224.07 c 12.91,-13.75 34.53,-14.45 48.29,-1.54 13.76,12.91 14.46,34.53 1.54,48.29 -12.9,13.77 -34.52,14.45 -48.28,1.54 -13.76,-12.9 -14.46,-34.52 -1.55,-48.29 z m -85.14,187.29 c -9.07,-16.54 -3,-37.31 13.55,-46.38 16.56,-9.07 37.32,-3.01 46.39,13.54 9.07,16.55 3,37.32 -13.55,46.38 -16.55,9.08 -37.32,3.01 -46.39,-13.54 z m 151.54,139.16 c -18.55,3.47 -36.4,-8.77 -39.88,-27.31 -3.47,-18.55 8.75,-36.4 27.3,-39.87 18.55,-3.47 36.4,8.74 39.88,27.3 3.47,18.54 -8.75,36.4 -27.3,39.88 z m 261.53,-148.67 c 1.55,26.66 -18.81,49.53 -45.47,51.08 -9.07,0.53 -17.69,-1.48 -25.19,-5.41 1.51,-19.07 -9.29,-36.56 -25.95,-44.23 0.67,-24.84 20.27,-45.44 45.53,-46.91 26.67,-1.55 49.53,18.81 51.08,45.47 z m -420.98,-188.57 c 14.52,-22.42 44.45,-28.84 66.87,-14.33 7.63,4.93 13.4,11.65 17.13,19.25 -12.51,14.51 -14.14,34.98 -5.22,51.03 -15.23,19.63 -43.21,24.67 -64.45,10.91 -22.42,-14.51 -28.84,-44.44 -14.33,-66.86 z m -31.29,283.15 c -16.79,-20.75 -13.58,-51.22 7.19,-68.02 7.06,-5.71 15.22,-9.1 23.6,-10.29 9.91,16.42 28.87,24.34 46.91,20.84 13.92,20.58 10,48.74 -9.68,64.65 -20.76,16.81 -51.21,13.59 -68.02,-7.18 z m 259.41,117.79 c -24.96,9.51 -52.91,-3.02 -62.42,-27.98 -3.24,-8.48 -3.92,-17.31 -2.44,-25.63 18.65,-4.31 32.09,-19.89 34.39,-38.11 23.88,-6.83 49.44,5.66 58.44,29.3 9.51,24.95 -3.02,52.91 -27.97,62.42 z M 4203.62,1233 c 16.31,31.34 4.13,69.96 -27.21,86.29 -5.11,2.66 -10.41,4.55 -15.79,5.74 -1.64,-1.89 -3.42,-3.69 -5.31,-5.37 -11.72,-10.44 -27,-15.75 -42.67,-14.84 -4.12,0.24 -8.14,0.92 -12,1.96 -4.09,-4.28 -7.66,-9.2 -10.52,-14.7 -16.32,-31.34 -4.13,-69.98 27.21,-86.29 31.34,-16.31 69.97,-4.13 86.29,27.21 z m -567.56,19.35 c 5.37,-34.92 38.03,-58.88 72.94,-53.52 5.71,0.88 11.13,2.49 16.17,4.71 1.49,17.59 10.79,34.34 26.72,44.66 3.49,2.24 7.12,4.08 10.84,5.52 0.77,5.85 0.74,11.92 -0.2,18.07 -5.37,34.92 -38.03,58.88 -72.95,53.52 -34.93,-5.38 -58.89,-38.03 -53.52,-72.96 z m 118.67,330.04 c -31.53,-15.96 -44.15,-54.45 -28.19,-86 2.61,-5.14 5.82,-9.78 9.5,-13.87 17.19,4.05 36,0.42 50.76,-11.52 3.23,-2.61 6.11,-5.5 8.64,-8.6 5.81,1.08 11.56,3.01 17.1,5.81 31.53,15.97 44.15,54.46 28.19,85.99 -15.97,31.54 -54.47,44.16 -86,28.19 z m 350.59,-10.18 c -24.98,25.01 -65.49,25.03 -90.5,0.06 -4.08,-4.09 -7.49,-8.57 -10.24,-13.35 9.2,-15.06 11.6,-34.09 4.84,-51.82 -1.48,-3.88 -3.33,-7.52 -5.49,-10.89 2.84,-5.17 6.45,-10.05 10.84,-14.44 24.97,-25 65.49,-25.03 90.5,-0.06 25,24.98 25.02,65.5 0.05,90.5 z m -94.47,-297.84 c 12.72,3.86 19.92,17.31 16.05,30.03 -3.86,12.74 -17.31,19.92 -30.04,16.06 -12.72,-3.87 -19.91,-17.32 -16.05,-30.04 3.87,-12.72 17.31,-19.91 30.04,-16.05 z m 31.35,-67.33 c 17.01,8.15 24.19,28.58 16.02,45.59 -5.84,12.19 -17.97,19.32 -30.63,19.39 -3.77,-3.52 -8.38,-6.26 -13.64,-7.86 -3.35,-1.01 -6.72,-1.5 -10.05,-1.5 -10.49,-9.93 -13.88,-25.86 -7.3,-39.6 8.16,-17.01 28.57,-24.19 45.6,-16.02 z m -17.75,-91.99 c 25.76,7.09 40.91,33.72 33.82,59.47 -2.41,8.75 -7.07,16.27 -13.18,22.12 -17.62,-7.57 -37.66,-2.94 -50.28,10.41 -23.3,-8.62 -36.52,-33.78 -29.82,-58.17 7.08,-25.76 33.71,-40.91 59.46,-33.83" style="fill:#57c2b0;fill-opacity:1;fill-rule:evenodd;stroke:none" id="path16"></path></g></g></svg>